# xmcd CD database file
#
# Track frame offsets:
#	150
#	11623
#	24481
#	43279
#	54824
#	68550
#	78786
#	89705
#
# Disc length: 1639 seconds
#
# Revision: 0
# Processed by: cddbd v1.5.2PL0 Copyright (c) Steve Scherf et al.
# Submitted via: CDex 1.70beta2
#
DISCID=59066508
DTITLE=G. Jannuzzo F. Buzzurro - Girgenti Amore Mio
DYEAR=1900
DGENRE=Jazz
TTITLE0=Naxos
TTITLE1=Milonga del ritorno
TTITLE2=Facce antiche
TTITLE3=Memoria ritrovata
TTITLE4=Luci a mare
TTITLE5=After love
TTITLE6=Siciliana
TTITLE7=Girgenti amore mio
EXTD=
EXTT0=
EXTT1=
EXTT2=
EXTT3=
EXTT4=
EXTT5=
EXTT6=
EXTT7=
PLAYORDER=
